<svg width="193" height="75" viewBox="0 0 193 75" fill="none" xmlns="http://www.w3.org/2000/svg">
<path d="M1.65 41.05C1.65 38.25 2.2 35.7667 3.3 33.6C4.43333 31.4333 5.95 29.7667 7.85 28.6C9.78333 27.4333 11.9333 26.85 14.3 26.85C16.3667 26.85 18.1667 27.2667 19.7 28.1C21.2667 28.9333 22.5167 29.9833 23.45 31.25V27.3H30.5V55H23.45V50.95C22.55 52.25 21.3 53.3333 19.7 54.2C18.1333 55.0333 16.3167 55.45 14.25 55.45C11.9167 55.45 9.78333 54.85 7.85 53.65C5.95 52.45 4.43333 50.7667 3.3 48.6C2.2 46.4 1.65 43.8833 1.65 41.05ZM23.45 41.15C23.45 39.45 23.1167 38 22.45 36.8C21.7833 35.5667 20.8833 34.6333 19.75 34C18.6167 33.3333 17.4 33 16.1 33C14.8 33 13.6 33.3167 12.5 33.95C11.4 34.5833 10.5 35.5167 9.8 36.75C9.13333 37.95 8.8 39.3833 8.8 41.05C8.8 42.7167 9.13333 44.1833 9.8 45.45C10.5 46.6833 11.4 47.6333 12.5 48.3C13.6333 48.9667 14.8333 49.3 16.1 49.3C17.4 49.3 18.6167 48.9833 19.75 48.35C20.8833 47.6833 21.7833 46.75 22.45 45.55C23.1167 44.3167 23.45 42.85 23.45 41.15ZM52.6867 26.9C55.9867 26.9 58.6534 27.95 60.6867 30.05C62.7201 32.1167 63.7367 35.0167 63.7367 38.75V55H56.7367V39.7C56.7367 37.5 56.1867 35.8167 55.0867 34.65C53.9867 33.45 52.4867 32.85 50.5867 32.85C48.6534 32.85 47.1201 33.45 45.9867 34.65C44.8867 35.8167 44.3367 37.5 44.3367 39.7V55H37.3367V27.3H44.3367V30.75C45.2701 29.55 46.4534 28.6167 47.8867 27.95C49.3534 27.25 50.9534 26.9 52.6867 26.9ZM73.9434 24C72.71 24 71.6767 23.6167 70.8434 22.85C70.0434 22.05 69.6434 21.0667 69.6434 19.9C69.6434 18.7333 70.0434 17.7667 70.8434 17C71.6767 16.2 72.71 15.8 73.9434 15.8C75.1767 15.8 76.1934 16.2 76.9934 17C77.8267 17.7667 78.2434 18.7333 78.2434 19.9C78.2434 21.0667 77.8267 22.05 76.9934 22.85C76.1934 23.6167 75.1767 24 73.9434 24ZM77.3934 27.3V55H70.3934V27.3H77.3934ZM118.709 26.9C122.109 26.9 124.843 27.95 126.909 30.05C129.009 32.1167 130.059 35.0167 130.059 38.75V55H123.059V39.7C123.059 37.5333 122.509 35.8833 121.409 34.75C120.309 33.5833 118.809 33 116.909 33C115.009 33 113.493 33.5833 112.359 34.75C111.259 35.8833 110.709 37.5333 110.709 39.7V55H103.709V39.7C103.709 37.5333 103.159 35.8833 102.059 34.75C100.959 33.5833 99.4594 33 97.5594 33C95.626 33 94.0927 33.5833 92.9594 34.75C91.8594 35.8833 91.3094 37.5333 91.3094 39.7V55H84.3094V27.3H91.3094V30.65C92.2094 29.4833 93.3594 28.5667 94.7594 27.9C96.1927 27.2333 97.7594 26.9 99.4594 26.9C101.626 26.9 103.559 27.3667 105.259 28.3C106.959 29.2 108.276 30.5 109.209 32.2C110.109 30.6 111.409 29.3167 113.109 28.35C114.843 27.3833 116.709 26.9 118.709 26.9ZM179.187 55.45C176.92 55.45 174.887 55.05 173.087 54.25C171.287 53.4167 169.853 52.3 168.787 50.9C167.753 49.5 167.187 47.95 167.087 46.25H174.137C174.27 47.3167 174.787 48.2 175.687 48.9C176.62 49.6 177.77 49.95 179.137 49.95C180.47 49.95 181.503 49.6833 182.237 49.15C183.003 48.6167 183.387 47.9333 183.387 47.1C183.387 46.2 182.92 45.5333 181.987 45.1C181.087 44.6333 179.637 44.1333 177.637 43.6C175.57 43.1 173.87 42.5833 172.537 42.05C171.237 41.5167 170.103 40.7 169.137 39.6C168.203 38.5 167.737 37.0167 167.737 35.15C167.737 33.6167 168.17 32.2167 169.037 30.95C169.937 29.6833 171.203 28.6833 172.837 27.95C174.503 27.2167 176.453 26.85 178.687 26.85C181.987 26.85 184.62 27.6833 186.587 29.35C188.553 30.9833 189.637 33.2 189.837 36H183.137C183.037 34.9 182.57 34.0333 181.737 33.4C180.937 32.7333 179.853 32.4 178.487 32.4C177.22 32.4 176.237 32.6333 175.537 33.1C174.87 33.5667 174.537 34.2167 174.537 35.05C174.537 35.9833 175.003 36.7 175.937 37.2C176.87 37.6667 178.32 38.15 180.287 38.65C182.287 39.15 183.937 39.6667 185.237 40.2C186.537 40.7333 187.653 41.5667 188.587 42.7C189.553 43.8 190.053 45.2667 190.087 47.1C190.087 48.7 189.637 50.1333 188.737 51.4C187.87 52.6667 186.603 53.6667 184.937 54.4C183.303 55.1 181.387 55.45 179.187 55.45Z" fill="white"/>
<path d="M149.002 55.45C146.335 55.45 143.935 54.8667 141.802 53.7C139.669 52.5 137.985 50.8167 136.752 48.65C135.552 46.4833 134.952 43.9833 134.952 41.15C134.952 38.3167 135.569 35.8167 136.802 33.65C138.069 31.4833 139.785 29.8167 141.952 28.65C144.119 27.45 146.535 26.85 149.202 26.85C151.869 26.85 154.285 27.45 156.452 28.65C158.619 29.8167 160.319 31.4833 161.552 33.65C162.819 35.8167 163.452 38.3167 163.452 41.15C163.452 43.9833 162.802 46.4833 161.502 48.65C160.235 50.8167 158.502 52.5 156.302 53.7C154.135 54.8667 151.702 55.45 149.002 55.45ZM149.002 49.35C150.269 49.35 151.452 49.05 152.552 48.45C153.685 47.8167 154.585 46.8833 155.252 45.65C155.919 44.4167 156.252 42.9167 156.252 41.15C156.252 38.5167 155.552 36.5 154.152 35.1C152.785 33.6667 151.102 32.95 149.102 32.95C147.102 32.95 145.419 33.6667 144.052 35.1C142.719 36.5 142.052 38.5167 142.052 41.15C142.052 43.7833 142.702 45.8167 144.002 47.25C145.335 48.65 147.002 49.35 149.002 49.35Z" fill="#CAF2FF"/>
<path d="M159 41C159 45.9706 154.971 50 150 50C145.029 50 141 45.9706 141 41C141 36.0294 145.029 32 150 32C154.971 32 159 36.0294 159 41Z" fill="#CAF2FF"/>
</svg>
